<?xml version="1.0" encoding="UTF-8"?>
<svg width="171px" height="120px" viewBox="0 0 171 120" version="1.1" xmlns="http://www.w3.org/2000/svg" xmlns:xlink="http://www.w3.org/1999/xlink">
    <!-- Generator: Sketch 41.2 (35397) - http://www.bohemiancoding.com/sketch -->
    <title>mock-logo</title>
    <desc>Created with Sketch.</desc>
    <defs></defs>
    <g id="Left,-Login" stroke="none" stroke-width="1" fill="none" fill-rule="evenodd">
        <g id="Desktop-HD---Left,-2-Pane-Login" transform="translate(-635.000000, -299.000000)">
            <g id="Right-Side" transform="translate(441.000000, 297.000000)">
                <g id="mock-logo" transform="translate(192.000000, 0.000000)">
                    <text id="My-Awesome-App" font-family="Avenir-Medium, Avenir" font-size="20.8000011" font-weight="400" fill="#4A4A4A">
                        <tspan x="0.516346839" y="116">My Awesome App</tspan>
                    </text>
                    <g id="Some-Logo" transform="translate(21.000000, 0.000000)">
                        <path d="M28.1279518,97.681218 C28.1279518,97.681218 13.5248464,76.9877547 18.056315,60.5919717 C22.5877836,44.1961887 40.2420134,35.3330478 40.2420139,35.3330478 C40.2420144,35.3330478 55.2075657,49.1470762 51.2531754,68.0520242 C47.2987852,86.9569723 28.1279518,97.681218 28.1279518,97.681218 Z" id="blue" fill="#50E3C2" opacity="0.65" transform="translate(34.551341, 66.507133) rotate(-100.000000) translate(-34.551341, -66.507133) "></path>
                        <path d="M23.4620807,68.1203766 C23.4620807,68.1203766 18.5611572,43.2924467 29.3877595,30.1522696 C40.2143619,17.0120925 59.9570703,16.0763596 59.9570708,16.0763598 C59.9570712,16.07636 67.9948325,34.7666336 56.6720729,50.4331295 C45.3493133,66.0996253 23.4620807,68.1203766 23.4620807,68.1203766" id="green" fill="#7ED321" opacity="0.65" transform="translate(42.539844, 42.098368) rotate(-80.000000) translate(-42.539844, -42.098368) "></path>
                        <path d="M60.445083,65.7658278 C60.445083,65.7658278 45.8419775,45.0723645 50.3734461,28.6765815 C54.9049147,12.2807985 72.5591445,3.41765756 72.559145,3.41765759 C72.5591455,3.41765761 87.5246968,17.2316859 83.5703065,36.136634 C79.6159163,55.0415821 60.445083,65.7658278 60.445083,65.7658278 Z" id="purple" fill="#C481FF" opacity="0.65" transform="translate(66.868472, 34.591743) rotate(-9.000000) translate(-66.868472, -34.591743) "></path>
                        <path d="M82.9380542,76.5388937 C82.9380542,76.5388937 68.3349488,55.8454304 72.8664174,39.4496474 C77.397886,23.0538644 95.0521158,14.1907234 95.0521163,14.1907235 C95.0521167,14.1907235 110.017668,28.0047518 106.063278,46.9096999 C102.108888,65.814648 82.9380542,76.5388937 82.9380542,76.5388937 Z" id="yellow" fill="#F8E81C" opacity="0.649999976" transform="translate(89.361443, 45.364809) rotate(36.000000) translate(-89.361443, -45.364809) "></path>
                        <path d="M71.0006317,81.0931431 C71.0006317,81.0931431 77.0801556,56.525794 92.4607692,49.1798608 C107.841383,41.8339276 126.130886,49.3068678 126.130887,49.3068682 C126.130887,49.3068686 125.495243,69.6337018 108.594386,79.0601409 C91.6935298,88.4865799 71.0006317,81.0931431 71.0006317,81.0931431" id="red" fill="#E15162" opacity="0.65" transform="translate(98.565759, 64.899046) rotate(27.000000) translate(-98.565759, -64.899046) "></path>
                    </g>
                </g>
            </g>
        </g>
    </g>
</svg>