<?xml version="1.0" encoding="UTF-8"?>
<svg viewBox="0 0 27 27" version="1.1" xmlns="http://www.w3.org/2000/svg" xmlns:xlink="http://www.w3.org/1999/xlink">
  <title>linkedin</title>
  <g id="Linkedin" transform="translate(-33.000000, -13.000000)" fill="#FFFFFF">
    <g id="linkedin" transform="translate(33.000000, 13.000000)">
      <path d="M3.33286391,0.2409939 C5.09814689,0.2409939 6.53208386,1.67518932 6.53208386,3.44073067 C6.53208386,5.20756431 5.09814689,6.64227664 3.33286391,6.64227664 C1.56396265,6.64227664 0.131834968,5.20756431 0.131834968,3.44073067 C0.131834968,1.67518932 1.56396265,0.2409939 3.33286391,0.2409939 L3.33286391,0.2409939 L3.33286391,0.2409939 Z M0.571734191,9.07025135 L6.09192613,9.07025135 L6.09192613,26.831892 L0.571734191,26.831892 L0.571734191,9.07025135 L0.571734191,9.07025135 Z" id="Shape"></path>
      <path d="M9.55425849,9.07025135 L14.8498486,9.07025135 L14.8498486,11.4969338 L14.9232513,11.4969338 C15.6598627,10.100732 17.460813,8.6282845 20.146214,8.6282845 C25.7361903,8.6282845 26.7682219,12.3069479 26.7682219,17.0892362 L26.7682219,26.831892 L21.2519068,26.831892 L21.2519068,18.1944118 C21.2519068,16.133709 21.2139129,13.4844924 18.3832573,13.4844924 C15.5104729,13.4844924 15.0705736,15.7284435 15.0705736,18.0452803 L15.0705736,26.831892 L9.55425849,26.831892 L9.55425849,9.07025135" id="Shape"></path>
    </g>
  </g>
</svg>
